<svg width="69" height="64" viewBox="0 0 69 64" fill="none" xmlns="http://www.w3.org/2000/svg">
<g id="Group 3">
<path id="Ellipse 32" d="M66.4841 31.9C66.4841 48.2943 52.2737 61.8 34.4697 61.8C16.6658 61.8 2.45532 48.2943 2.45532 31.9C2.45532 15.5057 16.6658 2 34.4697 2C52.2737 2 66.4841 15.5057 66.4841 31.9Z" stroke="#127EC2" stroke-width="4"/>
<path id="Vector 12" d="M21.5677 58.0644C15.7717 56.2322 11.3248 50.1364 10.1467 48.3903C9.93911 48.0826 9.83862 47.7226 9.83862 47.3514V22.2124C9.83862 21.4998 10.2212 20.8462 10.8945 20.6126C12.5946 20.0226 16.3478 19.2003 22.1542 20.4651C28.6549 21.8812 31.8468 24.7922 32.8942 25.9431C33.1713 26.2474 33.2968 26.6475 33.2968 27.0591V58.9599C33.2968 60.2852 32.0334 61.2406 30.7616 60.8677C28.6645 60.2526 25.4131 59.28 21.5677 58.0644Z" fill="#127EC2"/>
<path id="Vector 13" d="M47.3717 59.0714C53.1892 57.184 57.6475 50.8884 58.8057 49.1229C59.005 48.8192 59.1008 48.4671 59.1008 48.1039V22.2306C59.1008 21.526 58.7266 20.8781 58.0633 20.6405C56.3719 20.0346 52.6126 19.1799 46.7853 20.4826C40.2519 21.9433 37.0607 24.9536 36.0296 26.1224C35.7628 26.4248 35.6426 26.8168 35.6426 27.2201V60.0411C35.6426 61.3721 36.9165 62.3281 38.191 61.9444C40.2886 61.313 43.5345 60.3164 47.3717 59.0714Z" fill="#127EC2"/>
</g>
</svg>
