<svg width="72" height="72" viewBox="0 0 72 72" fill="none" xmlns="http://www.w3.org/2000/svg">
<g id="check-svgrepo-com (3) 1" clip-path="url(#clip0_2033_797)">
<path id="Vector" d="M36 0.5C16.3951 0.5 0.5 16.6168 0.5 36.5C0.5 56.3832 16.3929 72.5 36 72.5C55.6071 72.5 71.5 56.3832 71.5 36.5C71.5 16.6168 55.6071 0.5 36 0.5ZM36 68.072C18.8713 68.072 4.9375 53.87 4.9375 36.5C4.9375 19.13 18.8713 5 36 5C53.1287 5 67.0625 19.13 67.0625 36.5C67.0625 53.87 53.1287 68.072 36 68.072ZM50.1689 23.3285L29.3393 44.582L19.9584 35.0713C19.0931 34.1938 17.6864 34.1938 16.8189 35.0713C15.9514 35.9487 15.9514 37.373 16.8189 38.2527L27.8017 49.3903C28.667 50.2677 30.0737 50.2677 30.9412 49.3903C31.0411 49.289 31.1276 49.1787 31.2053 49.064L53.3085 26.51C54.1738 25.6325 54.1738 24.206 53.3085 23.3263C52.4432 22.4465 51.0365 22.451 50.1689 23.3285Z" fill="black"/>
</g>
<defs>
<clipPath id="clip0_2033_797">
<rect width="71" height="72" fill="white" transform="translate(0.5 0.5)"/>
</clipPath>
</defs>
</svg>
