<svg width="73" height="72" viewBox="0 0 73 72" fill="none" xmlns="http://www.w3.org/2000/svg">
<g id="error-circle-fail-failure-disallowed-x-cross-bad-svgrepo-com 1" clip-path="url(#clip0_2033_765)">
<g id="Icons1">
<path id="error-circle" fill-rule="evenodd" clip-rule="evenodd" d="M37.2099 72.4989C46.3505 72.4105 55.3991 68.5739 61.9065 62.0592C69.6356 54.3201 73.615 42.8718 72.2273 31.942C69.8476 13.2102 54.6504 0.500004 36.9816 0.500004C23.5591 0.500004 10.5118 9.00793 4.78871 21.3449C0.407469 30.7895 0.400056 42.1929 4.78871 51.6554C10.4702 63.9055 23.3041 72.3685 36.7533 72.4989C36.906 72.5004 37.0572 72.5004 37.2099 72.4989ZM36.7918 66.4997C23.1395 66.3663 10.402 55.6689 7.86819 41.9546C6.08307 32.2852 9.45463 21.823 16.475 14.9561C24.6741 6.93827 37.5584 4.25116 48.2705 8.79662C57.8574 12.864 65.0305 22.3056 66.353 32.7078C67.4857 41.6234 64.3277 50.9676 58.1228 57.4058C52.6785 63.0513 45.0458 66.4218 37.1714 66.4997C37.0454 66.4997 36.9179 66.4997 36.7918 66.4997ZM18.4336 51.0785L32.8658 36.4905L18.4188 21.8875L22.5761 17.6867L37.0231 32.2897L51.9653 17.1861L56.1286 21.3929L41.1864 36.4979L56.1583 51.6315L52.0024 55.8337L37.029 40.6987L22.5969 55.2867L18.4336 51.0785Z" fill="black"/>
</g>
</g>
<defs>
<clipPath id="clip0_2033_765">
<rect width="72" height="71" fill="white" transform="translate(0.5 0.5)"/>
</clipPath>
</defs>
</svg>
