<svg width="71" height="72" viewBox="0 0 71 72" fill="none" xmlns="http://www.w3.org/2000/svg">
<g id="time-svgrepo-com 1">
<g id="SVGRepo_iconCarrier">
<path id="Vector" d="M67.5413 36.5C67.5413 54.7253 52.9718 69.5 34.9997 69.5C17.0274 69.5 2.45801 54.7253 2.45801 36.5C2.45801 18.2746 17.0274 3.5 34.9997 3.5C52.9718 3.5 67.5413 18.2746 67.5413 36.5ZM8.39488 36.5C8.39488 51.4004 20.3063 63.4796 34.9997 63.4796C49.6931 63.4796 61.6046 51.4004 61.6046 36.5C61.6046 21.5996 49.6931 9.52049 34.9997 9.52049C20.3063 9.52049 8.39488 21.5996 8.39488 36.5Z" fill="#0F0F0F"/>
<path id="Vector_2" d="M34.9993 15.5C33.3655 15.5 32.041 16.8431 32.041 18.5V37.9001C32.041 37.9001 32.041 38.6822 32.4158 39.2705C32.6667 39.7694 33.0578 40.2029 33.5717 40.5038L47.2386 48.5057C48.6535 49.334 50.4629 48.8423 51.2796 47.4074C52.0964 45.9725 51.6119 44.1377 50.1969 43.3094L37.9577 36.1436V18.5C37.9577 16.8432 36.6332 15.5 34.9993 15.5Z" fill="#0F0F0F"/>
</g>
</g>
</svg>
