<svg width="69" height="64" viewBox="0 0 69 64" fill="none" xmlns="http://www.w3.org/2000/svg">
<g id="Group 2">
<path id="Vector" d="M33.9902 21.1179C33.8402 20.9781 33.6406 20.9 33.433 20.9C33.2254 20.9 33.0258 20.9781 32.8758 21.1179L14.3268 38.3845C14.2481 38.458 14.1854 38.5462 14.1426 38.6439C14.0998 38.7416 14.0779 38.8468 14.078 38.953L14.075 55.1583C14.075 55.9915 14.4146 56.7907 15.0193 57.3798C15.6239 57.969 16.444 58.3 17.2991 58.3H26.9817C27.4092 58.3 27.8193 58.1345 28.1216 57.8399C28.4239 57.5453 28.5938 57.1458 28.5938 56.7292V43.3769C28.5938 43.1686 28.6787 42.9688 28.8298 42.8215C28.981 42.6742 29.186 42.5915 29.3998 42.5915H37.4602C37.674 42.5915 37.879 42.6742 38.0302 42.8215C38.1813 42.9688 38.2662 43.1686 38.2662 43.3769V56.7292C38.2662 57.1458 38.4361 57.5453 38.7384 57.8399C39.0407 58.1345 39.4508 58.3 39.8783 58.3H49.5568C50.4119 58.3 51.232 57.969 51.8367 57.3798C52.4413 56.7907 52.781 55.9915 52.781 55.1583V38.953C52.7811 38.8468 52.7591 38.7416 52.7164 38.6439C52.6736 38.5462 52.6109 38.458 52.5321 38.3845L33.9902 21.1179Z" fill="#127EC2"/>
<path id="Vector_2" d="M56.9626 38.9897L49.4687 31.7747V20.8263C49.4687 20.3985 49.2998 19.9882 48.9992 19.6856C48.6986 19.3831 48.2909 19.2131 47.8657 19.2131H43.0568C42.6317 19.2131 42.224 19.3831 41.9233 19.6856C41.6227 19.9882 41.4538 20.3985 41.4538 20.8263V24.0527L35.6511 18.4691C35.1081 17.9166 34.3006 17.6 33.4279 17.6C32.5583 17.6 31.7528 17.9166 31.2098 18.4701L9.9003 38.9876C9.27714 39.5926 9.199 40.5877 9.76605 41.2431C9.90844 41.4085 10.0828 41.543 10.2785 41.6385C10.4742 41.7339 10.6872 41.7883 10.9044 41.7983C11.1216 41.8083 11.3386 41.7737 11.5422 41.6966C11.7457 41.6195 11.9316 41.5016 12.0884 41.3499L32.8769 21.3587C33.0261 21.2151 33.2245 21.1349 33.431 21.1349C33.6374 21.1349 33.8358 21.2151 33.985 21.3587L54.7756 41.3499C55.0818 41.6455 55.492 41.8068 55.9163 41.7985C56.3405 41.7902 56.7442 41.6129 57.0388 41.3056C57.6539 40.6643 57.6028 39.6057 56.9626 38.9897Z" fill="#127EC2"/>
<path id="Ellipse 31" d="M66.0288 31.9C66.0288 48.2943 51.8183 61.8 34.0144 61.8C16.2105 61.8 2 48.2943 2 31.9C2 15.5057 16.2105 2 34.0144 2C51.8183 2 66.0288 15.5057 66.0288 31.9Z" stroke="#127EC2" stroke-width="4"/>
</g>
</svg>
